<?xml version="1.0" encoding="UTF-8"?>
<svg xmlns="http://www.w3.org/2000/svg" width="1126" height="1083" viewBox="461 34 1126 1083">
  <!-- Border ring -->
  <path d="M 659.50 1116.00 L 624.00 1110.50 L 594.00 1100.50 L 554.00 1077.50 L 523.50 1051.00 L 493.50 1012.00 L 477.50 981.00 L 466.50 946.00 L 460.50 908.00 L 460.50 226.00 L 462.50 207.00 L 473.50 166.00 L 484.50 142.00 L 504.50 111.00 L 525.00 88.50 L 551.00 67.50 L 582.00 50.50 L 617.00 38.50 L 653.00 33.50 L 1398.00 33.50 L 1416.00 35.50 L 1449.00 43.50 L 1482.00 58.50 L 1514.00 80.50 L 1536.50 103.00 L 1551.50 123.00 L 1573.50 166.00 L 1583.50 201.00 L 1586.50 223.00 L 1586.50 906.00 L 1583.50 933.00 L 1573.50 971.00 L 1559.50 1002.00 L 1538.50 1034.00 L 1513.00 1061.50 L 1492.00 1078.50 L 1458.00 1098.50 L 1429.00 1109.50 L 1389.50 1116.00 Z M 1372.50 1062.00 L 1403.00 1059.50 L 1428.00 1052.50 L 1450.00 1042.50 L 1476.00 1025.50 L 1496.50 1005.00 L 1513.50 982.00 L 1526.50 954.00 L 1534.50 923.00 L 1536.50 898.00 L 1535.50 226.00 L 1532.50 206.00 L 1520.50 172.00 L 1512.50 157.00 L 1495.50 134.00 L 1476.00 115.50 L 1460.00 104.50 L 1432.00 91.50 L 1401.00 84.50 L 647.00 84.50 L 615.00 91.50 L 591.00 102.50 L 569.00 117.50 L 548.50 138.00 L 528.50 168.00 L 516.50 198.00 L 511.50 229.00 L 510.50 894.00 L 513.50 927.00 L 520.50 953.00 L 532.50 979.00 L 548.50 1002.00 L 575.00 1027.50 L 598.00 1042.50 L 629.00 1055.50 L 658.00 1061.50 L 1372.50 1062.00 Z" fill="#283a52" fill-rule="evenodd"/>
  <!-- Letter S -->
  <path d="M 1059.00 918.50 L 1015.00 918.50 L 950.00 911.50 L 876.00 891.50 L 845.00 878.50 L 803.00 855.50 L 761.00 824.50 L 743.50 807.00 L 757.50 787.00 L 831.00 698.50 L 834.00 698.50 L 845.00 709.50 L 879.00 734.50 L 920.00 757.50 L 958.00 772.50 L 1006.00 782.50 L 1054.00 784.50 L 1095.00 777.50 L 1116.00 768.50 L 1126.00 761.50 L 1143.50 740.00 L 1147.50 722.00 L 1145.50 700.00 L 1138.50 684.00 L 1120.00 665.50 L 1104.00 656.50 L 1077.00 646.50 L 946.00 612.50 L 910.00 600.50 L 859.00 577.50 L 833.00 560.50 L 806.50 536.00 L 788.50 512.00 L 773.50 478.00 L 765.50 435.00 L 767.50 380.00 L 773.50 354.00 L 782.50 329.00 L 807.50 288.00 L 830.00 264.50 L 845.00 252.50 L 887.00 227.50 L 935.00 210.50 L 987.00 201.50 L 1014.00 199.50 L 1065.00 200.50 L 1107.00 206.50 L 1152.00 217.50 L 1192.00 232.50 L 1230.00 251.50 L 1262.00 272.50 L 1284.50 292.00 L 1205.00 406.50 L 1175.00 385.50 L 1128.00 359.50 L 1086.00 343.50 L 1042.00 334.50 L 1005.00 334.50 L 971.00 341.50 L 945.00 355.50 L 933.50 367.00 L 927.50 377.00 L 922.50 395.00 L 921.50 408.00 L 923.50 418.00 L 932.50 437.00 L 945.00 448.50 L 966.00 460.50 L 987.00 468.50 L 1117.00 503.50 L 1159.00 517.50 L 1193.00 531.50 L 1213.00 542.50 L 1242.00 562.50 L 1267.50 588.00 L 1286.50 619.00 L 1297.50 651.00 L 1303.50 689.00 L 1303.50 717.00 L 1296.50 765.00 L 1281.50 803.00 L 1254.50 841.00 L 1213.00 875.50 L 1169.00 897.50 L 1122.00 911.50 L 1059.00 918.50 Z" fill="#283a53"/>
</svg>
