<svg xmlns="http://www.w3.org/2000/svg" viewBox="0 0 520 420" role="img" aria-label="Services illustration">
  <defs>
    <linearGradient id="g" x1="0" y1="0" x2="1" y2="1">
      <stop offset="0" stop-color="currentColor" stop-opacity="0.9" />
      <stop offset="1" stop-color="currentColor" stop-opacity="0.55" />
    </linearGradient>
  </defs>

  <!-- Card background -->
  <rect x="70" y="70" width="380" height="260" rx="28" fill="currentColor" opacity="0.08" />
  <rect x="92" y="92" width="336" height="216" rx="22" fill="white" opacity="0.9" />

  <!-- Nodes + links -->
  <path d="M150 220 C 200 150, 260 150, 310 210 S 420 280, 440 200" fill="none" stroke="url(#g)" stroke-width="6" stroke-linecap="round" />
  <path d="M130 170 C 200 210, 250 250, 320 260 S 410 240, 452 270" fill="none" stroke="currentColor" stroke-opacity="0.35" stroke-width="5" stroke-linecap="round" />

  <circle cx="150" cy="220" r="12" fill="currentColor" />
  <circle cx="230" cy="160" r="10" fill="currentColor" opacity="0.85" />
  <circle cx="310" cy="210" r="11" fill="currentColor" opacity="0.9" />
  <circle cx="390" cy="285" r="10" fill="currentColor" opacity="0.8" />
  <circle cx="440" cy="200" r="12" fill="currentColor" />

  <!-- Tiny “document” glyphs -->
  <g fill="currentColor" opacity="0.18">
    <rect x="130" y="110" width="80" height="10" rx="5" />
    <rect x="130" y="130" width="140" height="10" rx="5" />
    <rect x="130" y="150" width="110" height="10" rx="5" />

    <rect x="290" y="115" width="100" height="10" rx="5" />
    <rect x="290" y="135" width="120" height="10" rx="5" />
  </g>
</svg>
